<svg width="1027" height="1027" viewBox="0 0 1027 1027" fill="none" xmlns="http://www.w3.org/2000/svg">
<g filter="url(#filter0_dddddd)">
<rect x="248" y="148" width="660" height="660" rx="20" fill="#FEF2F2"/>
<rect x="246.5" y="146.5" width="663" height="663" rx="21.5" stroke="#FCA5A5" stroke-width="3" stroke-dasharray="20 20"/>
</g>
<mask id="mask0" mask-type="alpha" maskUnits="userSpaceOnUse" x="248" y="148" width="660" height="660">
<rect x="248" y="148" width="660" height="660" rx="20" fill="#E5E7EB"/>
</mask>
<g mask="url(#mask0)">
<rect x="217.5" y="714.5" width="703" height="110" fill="#FECACA" stroke="#FCA5A5" stroke-width="3"/>
</g>
<g filter="url(#filter1_dddddd)">
<rect x="66" y="277" width="493" height="109" fill="white"/>
<rect x="67.5" y="278.5" width="490" height="106" stroke="#EF4444" stroke-width="3"/>
</g>
<path d="M97.5933 309.2H107.961V345.552H130.425V354H97.5933V309.2ZM151.648 354.512C148.022 354.512 144.758 353.765 141.856 352.272C138.998 350.736 136.758 348.624 135.136 345.936C133.515 343.248 132.704 340.197 132.704 336.784C132.704 333.371 133.515 330.32 135.136 327.632C136.758 324.944 138.998 322.853 141.856 321.36C144.758 319.824 148.022 319.056 151.648 319.056C155.275 319.056 158.518 319.824 161.376 321.36C164.235 322.853 166.475 324.944 168.096 327.632C169.718 330.32 170.528 333.371 170.528 336.784C170.528 340.197 169.718 343.248 168.096 345.936C166.475 348.624 164.235 350.736 161.376 352.272C158.518 353.765 155.275 354.512 151.648 354.512ZM151.648 346.32C154.208 346.32 156.299 345.467 157.92 343.76C159.584 342.011 160.416 339.685 160.416 336.784C160.416 333.883 159.584 331.579 157.92 329.872C156.299 328.123 154.208 327.248 151.648 327.248C149.088 327.248 146.976 328.123 145.312 329.872C143.648 331.579 142.816 333.883 142.816 336.784C142.816 339.685 143.648 342.011 145.312 343.76C146.976 345.467 149.088 346.32 151.648 346.32ZM186.738 324.112C187.932 322.448 189.532 321.189 191.538 320.336C193.586 319.483 195.932 319.056 198.578 319.056V328.272C197.468 328.187 196.722 328.144 196.338 328.144C193.479 328.144 191.239 328.955 189.618 330.576C187.996 332.155 187.186 334.544 187.186 337.744V354H177.202V319.568H186.738V324.112ZM237.93 336.912C237.93 337.04 237.866 337.936 237.738 339.6H211.69C212.159 341.733 213.268 343.419 215.018 344.656C216.767 345.893 218.943 346.512 221.546 346.512C223.338 346.512 224.916 346.256 226.282 345.744C227.69 345.189 228.991 344.336 230.186 343.184L235.498 348.944C232.255 352.656 227.519 354.512 221.29 354.512C217.407 354.512 213.972 353.765 210.986 352.272C207.999 350.736 205.695 348.624 204.074 345.936C202.452 343.248 201.642 340.197 201.642 336.784C201.642 333.413 202.431 330.384 204.01 327.696C205.631 324.965 207.828 322.853 210.602 321.36C213.418 319.824 216.554 319.056 220.01 319.056C223.38 319.056 226.431 319.781 229.162 321.232C231.892 322.683 234.026 324.773 235.562 327.504C237.14 330.192 237.93 333.328 237.93 336.912ZM220.074 326.608C217.812 326.608 215.914 327.248 214.378 328.528C212.842 329.808 211.903 331.557 211.562 333.776H228.522C228.18 331.6 227.242 329.872 225.706 328.592C224.17 327.269 222.292 326.608 220.074 326.608ZM288.673 319.056C292.982 319.056 296.395 320.336 298.913 322.896C301.473 325.413 302.753 329.211 302.753 334.288V354H292.769V335.824C292.769 333.093 292.193 331.067 291.041 329.744C289.931 328.379 288.331 327.696 286.241 327.696C283.894 327.696 282.038 328.464 280.673 330C279.307 331.493 278.625 333.733 278.625 336.72V354H268.641V335.824C268.641 330.405 266.465 327.696 262.113 327.696C259.809 327.696 257.974 328.464 256.609 330C255.243 331.493 254.561 333.733 254.561 336.72V354H244.577V319.568H254.113V323.536C255.393 322.085 256.95 320.976 258.785 320.208C260.662 319.44 262.71 319.056 264.929 319.056C267.361 319.056 269.558 319.547 271.521 320.528C273.483 321.467 275.062 322.853 276.257 324.688C277.665 322.896 279.435 321.509 281.569 320.528C283.745 319.547 286.113 319.056 288.673 319.056ZM329.827 319.568H339.811V354H329.827V319.568ZM334.819 314.768C332.984 314.768 331.491 314.235 330.339 313.168C329.187 312.101 328.611 310.779 328.611 309.2C328.611 307.621 329.187 306.299 330.339 305.232C331.491 304.165 332.984 303.632 334.819 303.632C336.653 303.632 338.147 304.144 339.299 305.168C340.451 306.192 341.027 307.472 341.027 309.008C341.027 310.672 340.451 312.059 339.299 313.168C338.147 314.235 336.653 314.768 334.819 314.768ZM369.429 319.056C372.629 319.056 375.53 319.803 378.133 321.296C380.778 322.747 382.847 324.816 384.341 327.504C385.834 330.149 386.581 333.243 386.581 336.784C386.581 340.325 385.834 343.44 384.341 346.128C382.847 348.773 380.778 350.843 378.133 352.336C375.53 353.787 372.629 354.512 369.429 354.512C365.034 354.512 361.578 353.125 359.061 350.352V366.416H349.077V319.568H358.613V323.536C361.087 320.549 364.693 319.056 369.429 319.056ZM367.701 346.32C370.261 346.32 372.351 345.467 373.973 343.76C375.637 342.011 376.469 339.685 376.469 336.784C376.469 333.883 375.637 331.579 373.973 329.872C372.351 328.123 370.261 327.248 367.701 327.248C365.141 327.248 363.029 328.123 361.365 329.872C359.743 331.579 358.933 333.883 358.933 336.784C358.933 339.685 359.743 342.011 361.365 343.76C363.029 345.467 365.141 346.32 367.701 346.32ZM404.848 354.512C401.99 354.512 399.195 354.171 396.464 353.488C393.734 352.763 391.558 351.867 389.936 350.8L393.264 343.632C394.8 344.613 396.656 345.424 398.832 346.064C401.008 346.661 403.142 346.96 405.232 346.96C409.456 346.96 411.568 345.915 411.568 343.824C411.568 342.843 410.992 342.139 409.84 341.712C408.688 341.285 406.918 340.923 404.528 340.624C401.712 340.197 399.387 339.707 397.552 339.152C395.718 338.597 394.118 337.616 392.752 336.208C391.43 334.8 390.768 332.795 390.768 330.192C390.768 328.016 391.387 326.096 392.624 324.432C393.904 322.725 395.739 321.403 398.128 320.464C400.56 319.525 403.419 319.056 406.704 319.056C409.136 319.056 411.547 319.333 413.936 319.888C416.368 320.4 418.374 321.125 419.952 322.064L416.624 329.168C413.595 327.461 410.288 326.608 406.704 326.608C404.571 326.608 402.971 326.907 401.904 327.504C400.838 328.101 400.304 328.869 400.304 329.808C400.304 330.875 400.88 331.621 402.032 332.048C403.184 332.475 405.019 332.88 407.536 333.264C410.352 333.733 412.656 334.245 414.448 334.8C416.24 335.312 417.798 336.272 419.12 337.68C420.443 339.088 421.104 341.051 421.104 343.568C421.104 345.701 420.464 347.6 419.184 349.264C417.904 350.928 416.027 352.229 413.552 353.168C411.12 354.064 408.219 354.512 404.848 354.512ZM461.952 319.568V354H452.48V349.904C451.158 351.397 449.579 352.549 447.744 353.36C445.91 354.128 443.926 354.512 441.792 354.512C437.27 354.512 433.686 353.211 431.04 350.608C428.395 348.005 427.072 344.144 427.072 339.024V319.568H437.056V337.552C437.056 343.099 439.382 345.872 444.032 345.872C446.422 345.872 448.342 345.104 449.792 343.568C451.243 341.989 451.968 339.664 451.968 336.592V319.568H461.952ZM515.298 319.056C519.607 319.056 523.02 320.336 525.538 322.896C528.098 325.413 529.378 329.211 529.378 334.288V354H519.394V335.824C519.394 333.093 518.818 331.067 517.666 329.744C516.556 328.379 514.956 327.696 512.866 327.696C510.519 327.696 508.663 328.464 507.298 330C505.932 331.493 505.25 333.733 505.25 336.72V354H495.266V335.824C495.266 330.405 493.09 327.696 488.738 327.696C486.434 327.696 484.599 328.464 483.234 330C481.868 331.493 481.186 333.733 481.186 336.72V354H471.202V319.568H480.738V323.536C482.018 322.085 483.575 320.976 485.41 320.208C487.287 319.44 489.335 319.056 491.554 319.056C493.986 319.056 496.183 319.547 498.146 320.528C500.108 321.467 501.687 322.853 502.882 324.688C504.29 322.896 506.06 321.509 508.194 320.528C510.37 319.547 512.738 319.056 515.298 319.056Z" fill="black"/>
<rect x="53.5" y="264.5" width="25" height="25" fill="white" stroke="#EF4444" stroke-width="3"/>
<rect x="53.5" y="373.5" width="25" height="25" fill="white" stroke="#EF4444" stroke-width="3"/>
<rect x="546.5" y="373.5" width="25" height="25" fill="white" stroke="#EF4444" stroke-width="3"/>
<rect x="546.5" y="264.5" width="25" height="25" fill="white" stroke="#EF4444" stroke-width="3"/>
<circle cx="775" cy="690" r="77.5" fill="#FEE2E2" stroke="#FCA5A5" stroke-width="3"/>
<path d="M345.201 401.98C345.154 405.018 345.139 408.052 345.117 411.092L345.1 412.37L343.823 412.421C340.793 412.52 337.749 412.554 334.699 412.572C334.533 443.44 334.625 474.295 334.615 505.157V506.485L333.287 506.502C330.726 506.528 328.15 506.553 325.574 506.62L324.18 506.653L324.197 505.258C324.249 502.241 324.227 499.228 324.163 496.23C313.698 496.142 303.223 496.088 292.758 496.263C292.771 506.693 292.737 517.12 292.758 527.551C295.791 527.609 298.861 527.751 301.932 527.534L303.613 527.416L303.36 529.081C302.921 532.093 303.215 535.141 303.226 538.159C306.122 538.311 309.037 538.339 311.964 538.344H313.207L313.308 539.588C313.794 546.036 313.553 552.511 313.661 558.99C316.668 559.113 319.695 559.161 322.718 559.191L324.029 559.208L324.045 560.52C324.094 566.988 324.079 573.453 324.18 579.921C327.215 579.969 330.272 580.123 333.338 579.938L334.883 579.854L334.766 581.383C334.256 587.849 334.698 594.368 334.648 600.852C337.604 600.91 340.558 600.952 343.52 600.97H344.848L344.865 602.298C344.995 612.285 344.931 622.281 345.066 632.274C362.3 632.523 379.547 632.546 396.787 632.526C414.437 632.499 432.084 632.647 449.734 632.224C449.452 622.261 450.344 612.304 449.936 602.348L449.885 600.919L451.313 600.953C454.276 601.036 457.243 600.978 460.185 600.886C460.295 590.977 460.307 581.054 460.32 571.145V569.918L461.53 569.8C464.538 569.512 467.572 569.49 470.62 569.514C470.694 558.416 470.487 547.324 470.822 536.226V536.192V536.159C470.454 522.828 470.714 509.483 470.553 496.146C467.563 496.169 464.581 496.138 461.614 496.095L460.32 496.078L460.286 494.784C460.227 491.842 460.189 488.883 460.236 485.924C457.168 485.834 454.119 485.93 451.078 485.756L449.902 485.688L449.818 484.511C449.602 481.453 449.708 478.364 449.667 475.265C443.163 475.24 436.666 475.292 430.175 475.197L428.864 475.181L428.847 473.869C428.797 470.932 428.762 467.994 428.797 465.043C418.821 464.514 408.818 464.857 398.837 464.74L397.56 464.723L397.509 463.463C397.373 460.438 397.318 457.405 397.324 454.35C390.835 454.319 384.347 454.371 377.866 454.233L376.572 454.199L376.556 452.904C376.427 439.468 376.5 426.027 376.455 412.589C374.724 412.572 372.993 412.558 371.262 412.555C369.972 412.553 368.687 412.559 367.398 412.572L366.02 412.589L366.037 411.21C366.083 408.126 366.078 405.041 365.785 401.98C358.922 402 352.063 402.021 345.201 401.98H345.201Z" fill="white"/>
<path d="M345.194 401.977C352.056 402.017 358.919 402.004 365.781 401.984C366.111 405.427 366.097 408.89 366.03 412.34C359.053 412.407 352.083 412.32 345.106 412.407C345.133 408.93 345.14 405.454 345.194 401.977Z" fill="#1C1C1C"/>
<path d="M334.695 412.568C338.164 412.548 341.639 412.555 345.107 412.407C345.113 450.799 345.174 489.192 345.134 527.584C341.639 527.665 338.143 527.665 334.648 527.591C334.581 524.154 334.581 520.711 334.628 517.268C331.153 517.134 327.678 517.154 324.203 517.167C324.089 513.657 324.062 510.14 324.197 506.629C327.665 506.502 331.14 506.542 334.615 506.488C334.628 475.184 334.527 443.879 334.695 412.568Z" fill="#1C1C1C"/>
<path d="M366.071 412.582C369.532 412.535 372.994 412.555 376.455 412.589C376.502 426.469 376.408 440.356 376.556 454.236C383.479 454.417 390.402 454.317 397.325 454.35C397.318 457.814 397.325 461.277 397.527 464.74C407.945 464.908 418.383 464.491 428.794 465.043C428.754 468.425 428.774 471.808 428.848 475.191C435.784 475.318 442.727 475.238 449.671 475.265C449.718 478.741 449.496 482.238 449.865 485.702C453.314 486.004 456.775 485.823 460.23 485.924C460.176 489.313 460.203 492.702 460.29 496.092C463.705 496.152 467.126 496.179 470.554 496.152C470.715 509.501 470.453 522.85 470.823 536.192C470.487 547.302 470.688 558.411 470.614 569.521C467.173 569.494 463.732 569.48 460.317 569.904C460.304 580.227 460.297 590.556 460.183 600.879C456.755 600.986 453.32 601.101 449.899 600.933C449.509 590.428 449.691 579.911 449.792 569.4C453.24 569.433 456.694 569.433 460.149 569.406C460.156 544.995 460.176 520.59 460.189 496.179C456.741 496.132 453.293 496.139 449.845 496.179C449.65 492.783 449.872 489.367 449.597 485.977C446.176 485.318 442.68 485.722 439.226 485.708C439.152 496.179 439.347 506.65 439.138 517.127C435.724 517.134 432.303 517.134 428.888 517.141C428.653 503.173 428.895 489.205 428.808 475.238C421.811 475.197 414.814 475.218 407.824 475.238C407.824 485.702 407.931 496.166 407.81 506.623C404.342 506.697 400.881 506.697 397.419 506.63C397.352 492.675 397.338 478.714 397.506 464.76C390.503 464.727 383.506 464.72 376.502 464.801C376.428 478.741 376.556 492.682 376.502 506.623C373.001 506.724 369.492 506.73 365.99 506.63C365.99 475.285 366.01 443.933 366.071 412.582Z" fill="#1C1C1C"/>
<path d="M292.762 496.26C303.227 496.085 313.698 496.139 324.163 496.226C324.237 499.696 324.298 503.16 324.197 506.63C317.254 506.791 310.311 506.67 303.374 506.724C303.119 513.637 303.744 520.57 303.274 527.477C299.779 527.88 296.257 527.611 292.755 527.544C292.735 517.114 292.775 506.69 292.762 496.26Z" fill="#1C1C1C"/>
<path d="M303.556 527.712C306.916 527.194 310.331 527.389 313.718 527.484C313.792 530.974 313.799 534.471 313.765 537.968C317.26 537.988 320.749 537.981 324.244 538.028C324.324 544.988 324.244 551.949 324.284 558.909C327.732 558.889 331.187 558.895 334.642 558.943C334.595 565.923 335.092 572.957 334.38 579.904C330.979 580.213 327.571 579.971 324.177 579.917C324.069 573.018 324.082 566.118 324.022 559.218C320.567 559.198 317.112 559.138 313.658 558.996C313.543 552.123 313.88 545.237 313.254 538.385C309.914 538.398 306.567 538.337 303.233 538.163C303.22 534.679 302.762 531.142 303.556 527.712Z" fill="#1C1C1C"/>
<path d="M334.857 579.951C338.271 579.682 341.706 579.843 345.134 579.863C345.228 586.81 345.14 593.757 345.161 600.697C348.642 600.684 352.137 600.684 355.626 600.805C355.693 607.752 355.565 614.705 355.666 621.652C383.499 621.719 411.332 621.706 439.165 621.692C439.272 614.739 439.138 607.785 439.212 600.825C442.774 600.778 446.337 600.731 449.899 600.933C450.463 611.356 449.442 621.786 449.738 632.223C432.087 632.647 414.437 632.492 396.787 632.519C379.547 632.54 362.307 632.519 345.073 632.271C344.932 621.84 345.006 611.41 344.851 600.986C341.45 600.98 338.049 600.926 334.649 600.859C334.702 593.892 334.144 586.878 334.857 579.951Z" fill="#1C1C1C"/>
<defs>
<filter id="filter0_dddddd" x="196" y="145" width="764" height="766" filterUnits="userSpaceOnUse" color-interpolation-filters="sRGB">
<feFlood flood-opacity="0" result="BackgroundImageFix"/>
<feColorMatrix in="SourceAlpha" type="matrix" values="0 0 0 0 0 0 0 0 0 0 0 0 0 0 0 0 0 0 127 0"/>
<feOffset dy="1.4113"/>
<feGaussianBlur stdDeviation="0.677978"/>
<feColorMatrix type="matrix" values="0 0 0 0 0 0 0 0 0 0 0 0 0 0 0 0 0 0 0.0112458 0"/>
<feBlend mode="normal" in2="BackgroundImageFix" result="effect1_dropShadow"/>
<feColorMatrix in="SourceAlpha" type="matrix" values="0 0 0 0 0 0 0 0 0 0 0 0 0 0 0 0 0 0 127 0"/>
<feOffset dy="3.39155"/>
<feGaussianBlur stdDeviation="1.62927"/>
<feColorMatrix type="matrix" values="0 0 0 0 0 0 0 0 0 0 0 0 0 0 0 0 0 0 0.0161557 0"/>
<feBlend mode="normal" in2="effect1_dropShadow" result="effect2_dropShadow"/>
<feColorMatrix in="SourceAlpha" type="matrix" values="0 0 0 0 0 0 0 0 0 0 0 0 0 0 0 0 0 0 127 0"/>
<feOffset dy="6.38599"/>
<feGaussianBlur stdDeviation="3.06778"/>
<feColorMatrix type="matrix" values="0 0 0 0 0 0 0 0 0 0 0 0 0 0 0 0 0 0 0.02 0"/>
<feBlend mode="normal" in2="effect2_dropShadow" result="effect3_dropShadow"/>
<feColorMatrix in="SourceAlpha" type="matrix" values="0 0 0 0 0 0 0 0 0 0 0 0 0 0 0 0 0 0 127 0"/>
<feOffset dy="11.3915"/>
<feGaussianBlur stdDeviation="5.4724"/>
<feColorMatrix type="matrix" values="0 0 0 0 0 0 0 0 0 0 0 0 0 0 0 0 0 0 0.0238443 0"/>
<feBlend mode="normal" in2="effect3_dropShadow" result="effect4_dropShadow"/>
<feColorMatrix in="SourceAlpha" type="matrix" values="0 0 0 0 0 0 0 0 0 0 0 0 0 0 0 0 0 0 127 0"/>
<feOffset dy="21.3066"/>
<feGaussianBlur stdDeviation="10.2355"/>
<feColorMatrix type="matrix" values="0 0 0 0 0 0 0 0 0 0 0 0 0 0 0 0 0 0 0.0287542 0"/>
<feBlend mode="normal" in2="effect4_dropShadow" result="effect5_dropShadow"/>
<feColorMatrix in="SourceAlpha" type="matrix" values="0 0 0 0 0 0 0 0 0 0 0 0 0 0 0 0 0 0 127 0"/>
<feOffset dy="51"/>
<feGaussianBlur stdDeviation="24.5"/>
<feColorMatrix type="matrix" values="0 0 0 0 0 0 0 0 0 0 0 0 0 0 0 0 0 0 0.04 0"/>
<feBlend mode="normal" in2="effect5_dropShadow" result="effect6_dropShadow"/>
<feBlend mode="normal" in="SourceGraphic" in2="effect6_dropShadow" result="shape"/>
</filter>
<filter id="filter1_dddddd" x="17" y="277" width="591" height="209" filterUnits="userSpaceOnUse" color-interpolation-filters="sRGB">
<feFlood flood-opacity="0" result="BackgroundImageFix"/>
<feColorMatrix in="SourceAlpha" type="matrix" values="0 0 0 0 0 0 0 0 0 0 0 0 0 0 0 0 0 0 127 0"/>
<feOffset dy="1.4113"/>
<feGaussianBlur stdDeviation="0.677978"/>
<feColorMatrix type="matrix" values="0 0 0 0 0 0 0 0 0 0 0 0 0 0 0 0 0 0 0.0112458 0"/>
<feBlend mode="normal" in2="BackgroundImageFix" result="effect1_dropShadow"/>
<feColorMatrix in="SourceAlpha" type="matrix" values="0 0 0 0 0 0 0 0 0 0 0 0 0 0 0 0 0 0 127 0"/>
<feOffset dy="3.39155"/>
<feGaussianBlur stdDeviation="1.62927"/>
<feColorMatrix type="matrix" values="0 0 0 0 0 0 0 0 0 0 0 0 0 0 0 0 0 0 0.0161557 0"/>
<feBlend mode="normal" in2="effect1_dropShadow" result="effect2_dropShadow"/>
<feColorMatrix in="SourceAlpha" type="matrix" values="0 0 0 0 0 0 0 0 0 0 0 0 0 0 0 0 0 0 127 0"/>
<feOffset dy="6.38599"/>
<feGaussianBlur stdDeviation="3.06778"/>
<feColorMatrix type="matrix" values="0 0 0 0 0 0 0 0 0 0 0 0 0 0 0 0 0 0 0.02 0"/>
<feBlend mode="normal" in2="effect2_dropShadow" result="effect3_dropShadow"/>
<feColorMatrix in="SourceAlpha" type="matrix" values="0 0 0 0 0 0 0 0 0 0 0 0 0 0 0 0 0 0 127 0"/>
<feOffset dy="11.3915"/>
<feGaussianBlur stdDeviation="5.4724"/>
<feColorMatrix type="matrix" values="0 0 0 0 0 0 0 0 0 0 0 0 0 0 0 0 0 0 0.0238443 0"/>
<feBlend mode="normal" in2="effect3_dropShadow" result="effect4_dropShadow"/>
<feColorMatrix in="SourceAlpha" type="matrix" values="0 0 0 0 0 0 0 0 0 0 0 0 0 0 0 0 0 0 127 0"/>
<feOffset dy="21.3066"/>
<feGaussianBlur stdDeviation="10.2355"/>
<feColorMatrix type="matrix" values="0 0 0 0 0 0 0 0 0 0 0 0 0 0 0 0 0 0 0.0287542 0"/>
<feBlend mode="normal" in2="effect4_dropShadow" result="effect5_dropShadow"/>
<feColorMatrix in="SourceAlpha" type="matrix" values="0 0 0 0 0 0 0 0 0 0 0 0 0 0 0 0 0 0 127 0"/>
<feOffset dy="51"/>
<feGaussianBlur stdDeviation="24.5"/>
<feColorMatrix type="matrix" values="0 0 0 0 0 0 0 0 0 0 0 0 0 0 0 0 0 0 0.04 0"/>
<feBlend mode="normal" in2="effect5_dropShadow" result="effect6_dropShadow"/>
<feBlend mode="normal" in="SourceGraphic" in2="effect6_dropShadow" result="shape"/>
</filter>
</defs>
</svg>
