<svg width="74" height="74" viewBox="0 0 74 74" fill="none" xmlns="http://www.w3.org/2000/svg">
<path d="M0 32.2C0 20.8102 0 15.1153 2.25173 10.7805C4.14924 7.12765 7.12765 4.14924 10.7805 2.25173C15.1153 0 20.8102 0 32.2 0H41.8C53.1898 0 58.8847 0 63.2195 2.25173C66.8724 4.14924 69.8508 7.12765 71.7483 10.7805C74 15.1153 74 20.8102 74 32.2V41.8C74 53.1898 74 58.8847 71.7483 63.2195C69.8508 66.8724 66.8724 69.8508 63.2195 71.7483C58.8847 74 53.1898 74 41.8 74H32.2C20.8102 74 15.1153 74 10.7805 71.7483C7.12765 69.8508 4.14924 66.8724 2.25173 63.2195C0 58.8847 0 53.1898 0 41.8V32.2Z" fill="url(#paint0_linear)"/>
<path d="M21.0464 44.5818C17.8111 47.7479 20.5446 50.9991 16.2479 55.8143C14.3088 57.991 24.2305 57.3271 29.1444 52.5141C31.2308 50.4693 30.6414 47.4947 28.4055 45.3031C26.1696 43.1158 23.1307 42.537 21.0464 44.5818V44.5818ZM56.8721 17.125C55.2149 15.4994 36.8429 30.1661 31.376 35.5217C28.6617 38.1815 27.7563 39.6071 26.9255 40.6709C26.5625 41.1369 27.043 41.2774 27.2544 41.3859C28.3307 41.9348 29.0824 42.4413 30.0541 43.3924C31.0279 44.3435 31.5468 45.0797 32.1021 46.1351C32.2152 46.3436 32.3605 46.8117 32.8324 46.4585C33.9215 45.6435 35.3758 44.7541 38.0901 42.0987C43.5592 36.7452 58.5335 18.7485 56.8721 17.125Z" fill="url(#paint1_linear)"/>
<defs>
<linearGradient id="paint0_linear" x1="59" y1="17.5" x2="5.126e-06" y2="74" gradientUnits="userSpaceOnUse">
<stop stop-color="#FF8008"/>
<stop offset="1" stop-color="#FFC837"/>
</linearGradient>
<linearGradient id="paint1_linear" x1="30" y1="47.5" x2="57" y2="22" gradientUnits="userSpaceOnUse">
<stop stop-color="white"/>
<stop offset="1" stop-color="white" stop-opacity="0"/>
</linearGradient>
</defs>
</svg>
